<?xml version="1.0" standalone="no"?>
<!DOCTYPE svg PUBLIC "-//W3C//DTD SVG 20010904//EN"
 "http://www.w3.org/TR/2001/REC-SVG-20010904/DTD/svg10.dtd">
<svg version="1.0" xmlns="http://www.w3.org/2000/svg"
 width="499.000000pt" height="152.000000pt" viewBox="0 0 499.000000 152.000000"
 preserveAspectRatio="xMidYMid meet">

<g transform="translate(0.000000,152.000000) scale(0.100000,-0.100000)"
fill="#000000" stroke="none">
<path d="M0 760 l0 -760 2495 0 2495 0 0 760 0 760 -2495 0 -2495 0 0 -760z
m2420 85 c0 -63 2 -115 4 -115 2 0 20 16 41 35 50 45 112 65 204 65 93 0 151
-24 181 -72 17 -28 20 -50 20 -145 l0 -113 -80 0 -79 0 -3 86 c-3 81 -5 88
-29 107 -32 23 -151 27 -214 5 l-40 -13 -3 -93 -3 -92 -74 0 -75 0 0 230 0
230 75 0 75 0 0 -115z m920 66 l0 -49 -65 -4 c-42 -2 -71 -10 -81 -20 -27 -27
-7 -38 72 -38 l74 0 0 -45 0 -44 -77 -3 -78 -3 -3 -102 -3 -103 -74 0 -74 0
-3 103 -3 102 -52 3 -53 3 0 44 0 44 53 3 52 3 5 48 c10 85 48 104 213 106
l97 1 0 -49z m-2323 -10 c67 -31 96 -96 73 -166 -9 -29 -22 -41 -53 -55 -35
-16 -38 -20 -22 -25 66 -21 65 -20 65 -90 l0 -65 -80 0 -80 0 0 50 c0 38 -4
52 -19 60 -12 6 -92 10 -190 10 l-171 0 0 -60 0 -60 -85 0 -85 0 0 210 0 210
303 0 c275 0 306 -2 344 -19z m1083 -31 l0 -50 55 0 55 0 0 -45 0 -45 -55 0
-55 0 0 -115 0 -115 -80 0 -80 0 0 115 0 115 -55 0 -55 0 0 44 0 45 53 3 52 3
3 48 3 47 80 0 79 0 0 -50z m1750 -51 c63 -13 116 -57 130 -107 18 -66 31 -62
-215 -62 -124 0 -225 -4 -225 -8 0 -52 209 -79 277 -36 14 9 50 14 93 14 83 0
90 -13 36 -65 -57 -53 -210 -77 -360 -56 -149 21 -206 67 -206 164 0 28 7 61
17 77 19 33 73 66 129 79 56 13 264 13 324 0z m714 -18 c37 -18 53 -34 67 -65
10 -23 19 -51 19 -63 l0 -23 -226 0 c-240 0 -254 -3 -184 -44 43 -25 190 -27
238 -2 34 18 157 23 167 7 12 -20 -56 -81 -108 -96 -120 -35 -325 -27 -415 17
-62 30 -84 68 -79 140 2 44 9 64 28 84 55 59 117 74 299 71 130 -2 150 -4 194
-26z m-3234 -55 c0 -124 19 -148 120 -149 44 0 72 7 114 27 l56 27 0 85 0 84
80 0 80 0 0 -160 0 -160 -80 0 -80 0 0 53 0 54 -45 -43 c-80 -77 -209 -94
-314 -41 -66 33 -81 69 -81 194 l0 103 75 0 75 0 0 -74z"/>
<path d="M540 765 l0 -35 189 0 c196 0 220 5 206 43 -9 22 -50 27 -231 27
l-164 0 0 -35z"/>
<path d="M3584 726 c-68 -30 -50 -36 100 -36 152 0 177 8 111 36 -43 18 -169
18 -211 0z"/>
<path d="M4254 729 c-17 -5 -37 -16 -44 -24 -11 -13 5 -15 139 -15 83 0 151 2
151 5 0 3 -15 14 -32 25 -26 15 -50 20 -108 19 -41 0 -89 -5 -106 -10z"/>
</g>
</svg>
