<?xml version="1.0" encoding="UTF-8"?>
<svg version="1.1" xmlns="http://www.w3.org/2000/svg" width="499" height="152">
<path d="M0 0 C1.19529327 -0.00953201 2.39058655 -0.01906403 3.62210083 -0.02888489 C4.92098236 -0.02797348 6.21986389 -0.02706207 7.55810547 -0.02612305 C8.90371839 -0.03001092 10.24933008 -0.03434578 11.59494019 -0.03910828 C14.42124395 -0.04657998 17.24742287 -0.04627448 20.07373047 -0.04101562 C23.67823144 -0.03524972 27.28221373 -0.05207655 30.8866291 -0.0753603 C33.66979921 -0.0901756 36.45284709 -0.09095831 39.23604965 -0.08785057 C41.20565813 -0.08860769 43.17524774 -0.10243436 45.14480591 -0.11653137 C59.27495315 -0.04404474 59.27495315 -0.04404474 64.84671021 4.54960632 C68.26126651 8.1702735 69.30029297 11.37630671 69.30029297 16.2746582 C68.37075095 20.3706889 67.24158539 23.41404799 64.11279297 26.2746582 C63.51466797 26.6046582 62.91654297 26.9346582 62.30029297 27.2746582 C62.93966797 27.5634082 63.57904297 27.8521582 64.23779297 28.1496582 C66.30029297 29.2746582 66.30029297 29.2746582 67.30029297 31.2746582 C67.43890287 35.27771227 67.34291503 39.26818444 67.30029297 43.2746582 C61.36029297 43.2746582 55.42029297 43.2746582 49.30029297 43.2746582 C48.97029297 39.9746582 48.64029297 36.6746582 48.30029297 33.2746582 C43.89128795 32.44538751 39.6342629 32.09234106 35.15185547 31.95825195 C34.49446381 31.93747086 33.83707214 31.91668976 33.15975952 31.89527893 C31.08169935 31.83045068 29.00352441 31.77121256 26.92529297 31.7121582 C25.50731286 31.66890932 24.0893439 31.62529312 22.67138672 31.58129883 C19.21447417 31.47483903 15.75743591 31.37338836 12.30029297 31.2746582 C12.30029297 35.2346582 12.30029297 39.1946582 12.30029297 43.2746582 C6.69029297 43.2746582 1.08029297 43.2746582 -4.69970703 43.2746582 C-4.77318359 39.08649414 -4.77318359 39.08649414 -4.84814453 34.8137207 C-4.90211887 32.11639945 -4.95944025 29.41916873 -5.01708984 26.72192383 C-5.05542681 24.84406245 -5.0902713 22.96612644 -5.12158203 21.08813477 C-5.16713067 18.39222499 -5.22514078 15.69683108 -5.28564453 13.0012207 C-5.29719574 12.15846588 -5.30874695 11.31571106 -5.32064819 10.44741821 C-5.24163884 5.88444863 -5.24163884 5.88444863 -7.69970703 2.2746582 C-5.03012693 -0.39492189 -3.73017596 0.01628906 0 0 Z M13.30029297 14.2746582 C12.97029297 15.9246582 12.64029297 17.5746582 12.30029297 19.2746582 C24.84029297 19.2746582 37.38029297 19.2746582 50.30029297 19.2746582 C50.63029297 17.9546582 50.96029297 16.6346582 51.30029297 15.2746582 C48.12738584 13.68820464 44.71203913 14.15387607 41.22998047 14.17700195 C40.43375275 14.1784169 39.63752502 14.17983185 38.81716919 14.18128967 C36.26983917 14.18689475 33.7225965 14.19944807 31.17529297 14.2121582 C29.45003382 14.21717255 27.7247733 14.22173557 25.99951172 14.22583008 C21.76640506 14.23686583 17.53336383 14.25413384 13.30029297 14.2746582 Z " fill="#F993B8" transform="translate(41.69970703125,58.725341796875)"/>
<path d="M0 0 C5.61 0 11.22 0 17 0 C17.33 6.6 17.66 13.2 18 20 C19.340625 19.05125 20.68125 18.1025 22.0625 17.125 C30.62077437 11.49909561 39.63161795 10.71431457 49.6640625 12.46484375 C55.16285606 14.01885063 57.88264682 16.22655294 61 21 C61.99904307 24.0345687 62.11706116 26.80197026 62.09765625 29.984375 C62.09443359 30.91894531 62.09121094 31.85351562 62.08789062 32.81640625 C62.07532227 34.26853516 62.07532227 34.26853516 62.0625 35.75 C62.05798828 36.73355469 62.05347656 37.71710938 62.04882812 38.73046875 C62.037065 41.15367194 62.01913018 43.57684377 62 46 C56.39 46 50.78 46 45 46 C44.8046875 42.484375 44.609375 38.96875 44.4140625 35.453125 C43.96393522 31.40358215 43.96393522 31.40358215 42 28 C34.31569154 23.87033763 25.0310421 25.89349715 17 28 C17 33.94 17 39.88 17 46 C11.39 46 5.78 46 0 46 C0 30.82 0 15.64 0 0 Z " fill="#F793B7" transform="translate(226,56)"/>
<path d="M0 0 C1.34191406 -0.01836914 1.34191406 -0.01836914 2.7109375 -0.03710938 C12.48338667 -0.05841559 19.85733157 1.21537204 27.4375 7.75 C30.40870555 11.34672251 29.625 14.41635126 29.625 19.1875 C15.105 19.5175 0.585 19.8475 -14.375 20.1875 C-9.19565986 24.0720051 -6.37405877 24.33785514 0 24.375 C1.10085938 24.38917969 2.20171875 24.40335938 3.3359375 24.41796875 C6.61035254 24.33423419 6.61035254 24.33423419 9.484375 23.18359375 C13.571952 21.88716075 17.24557777 21.96875849 21.5 22.0625 C22.675625 22.07603516 22.675625 22.07603516 23.875 22.08984375 C25.79180055 22.11321937 27.70844191 22.14908347 29.625 22.1875 C28.99526708 26.46682142 28.00952156 28.39648145 24.46142578 31.0625 C16.92926422 35.676725 8.84192013 35.64822869 0.25 35.5625 C-0.905 35.57410156 -2.06 35.58570313 -3.25 35.59765625 C-11.69339782 35.56906687 -20.97499458 35.15462914 -27.9375 29.8125 C-32.17088362 25.25347149 -32.79180651 21.39344882 -32.62109375 15.328125 C-32.09525789 10.75418771 -29.79628958 8.5900656 -26.5625 5.5 C-18.7131895 -0.19459781 -9.34513104 0.00667509 0 0 Z M-7.625 11.0625 C-8.49640625 11.22492188 -9.3678125 11.38734375 -10.265625 11.5546875 C-10.96171875 11.76351562 -11.6578125 11.97234375 -12.375 12.1875 C-12.705 12.8475 -13.035 13.5075 -13.375 14.1875 C-4.795 14.1875 3.785 14.1875 12.625 14.1875 C11.82980406 12.0085831 11.82980406 12.0085831 9.734375 11.5546875 C8.95578125 11.39226562 8.1771875 11.22984375 7.375 11.0625 C6.60671875 10.89492187 5.8384375 10.72734375 5.046875 10.5546875 C0.65591514 9.88896133 -3.28008446 10.2169326 -7.625 11.0625 Z " fill="#F594B7" transform="translate(369.375,67.8125)"/>
<path d="M0 0 C0.89912109 -0.01224609 1.79824219 -0.02449219 2.72460938 -0.03710938 C11.58798876 -0.05633579 19.32241305 1.03193914 26.6875 6.1875 C30.31787518 10.54395021 29.91246344 12.98720748 30.6875 19.1875 C15.8375 19.1875 0.9875 19.1875 -14.3125 19.1875 C-9.165884 24.334116 -6.97657909 24.33397973 0.0625 24.375 C1.16335938 24.38917969 2.26421875 24.40335938 3.3984375 24.41796875 C6.67285254 24.33423419 6.67285254 24.33423419 9.546875 23.18359375 C13.634452 21.88716075 17.30807777 21.96875849 21.5625 22.0625 C22.738125 22.07603516 22.738125 22.07603516 23.9375 22.08984375 C25.85430055 22.11321937 27.77094191 22.14908347 29.6875 22.1875 C29.05775927 26.4668745 28.07204172 28.39667408 24.52368164 31.0625 C16.97368891 35.6882634 8.86189669 35.64809588 0.25 35.5625 C-0.91337891 35.57410156 -2.07675781 35.58570313 -3.27539062 35.59765625 C-12.9489956 35.56499354 -21.73545004 34.65334549 -28.97265625 27.72265625 C-31.77015054 24.51736396 -32.24539105 21.92569845 -32.625 17.75 C-32.18006425 12.67773246 -30.72235217 9.59735217 -27.125 6 C-18.68813291 0.56290787 -9.80281417 0.00693759 0 0 Z M-13.3125 14.1875 C-4.7325 14.1875 3.8475 14.1875 12.6875 14.1875 C8.74317587 10.24317587 6.22699259 10.50634057 0.84375 10.1796875 C-4.30335146 10.19242785 -9.55318846 10.42818846 -13.3125 14.1875 Z " fill="#F994B8" transform="translate(435.3125,67.8125)"/>
<path d="M0 0 C5.61 0 11.22 0 17 0 C17.04898438 1.26457031 17.09796875 2.52914062 17.1484375 3.83203125 C17.2234738 5.49220947 17.29902127 7.15236464 17.375 8.8125 C17.4059375 9.64587891 17.436875 10.47925781 17.46875 11.33789062 C17.50742188 12.14033203 17.54609375 12.94277344 17.5859375 13.76953125 C17.63306885 14.87711792 17.63306885 14.87711792 17.68115234 16.00708008 C17.90834614 18.31349588 17.90834614 18.31349588 20 21 C27.15091083 23.38363694 33.51544538 22.28719598 40.1875 19.0703125 C42.15784607 18.00836884 42.15784607 18.00836884 44 16 C44.30720512 13.2583392 44.51063924 10.62345231 44.625 7.875 C44.74875 5.27625 44.8725 2.6775 45 0 C50.61 0 56.22 0 62 0 C62.09973469 11.0705506 61.73649157 21.95262651 61 33 C55.72 33 50.44 33 45 33 C44.505 29.04 44.505 29.04 44 25 C43.57589844 25.39832031 43.15179688 25.79664062 42.71484375 26.20703125 C42.12832031 26.73683594 41.54179687 27.26664063 40.9375 27.8125 C40.36902344 28.33457031 39.80054688 28.85664062 39.21484375 29.39453125 C33.7962824 33.32227149 28.58048618 34.48845666 22 34.375 C21.32710937 34.38660156 20.65421875 34.39820313 19.9609375 34.41015625 C13.59178798 34.37326928 9.06375723 32.74272833 4.1875 28.625 C0.82330768 24.58796922 -0.25934837 21.13689236 -0.1953125 15.91796875 C-0.18886719 14.98662109 -0.18242188 14.05527344 -0.17578125 13.09570312 C-0.15902344 12.13599609 -0.14226562 11.17628906 -0.125 10.1875 C-0.11597656 9.20845703 -0.10695313 8.22941406 -0.09765625 7.22070312 C-0.07417326 4.81369652 -0.03830477 2.40681636 0 0 Z " fill="#F794B7" transform="translate(117,69)"/>
<path d="M0 0 C1.60004883 0.01450195 1.60004883 0.01450195 3.23242188 0.02929688 C4.88661133 0.06700195 4.88661133 0.06700195 6.57421875 0.10546875 C7.69634766 0.11900391 8.81847656 0.13253906 9.97460938 0.14648438 C12.73718558 0.18175131 15.49951405 0.23555572 18.26171875 0.29296875 C18.26171875 3.92296875 18.26171875 7.55296875 18.26171875 11.29296875 C13.31171875 11.62296875 8.36171875 11.95296875 3.26171875 12.29296875 C3.26171875 13.28296875 3.26171875 14.27296875 3.26171875 15.29296875 C8.21171875 15.29296875 13.16171875 15.29296875 18.26171875 15.29296875 C18.26171875 18.92296875 18.26171875 22.55296875 18.26171875 26.29296875 C13.31171875 26.29296875 8.36171875 26.29296875 3.26171875 26.29296875 C3.26171875 32.89296875 3.26171875 39.49296875 3.26171875 46.29296875 C-2.34828125 46.29296875 -7.95828125 46.29296875 -13.73828125 46.29296875 C-13.73828125 39.69296875 -13.73828125 33.09296875 -13.73828125 26.29296875 C-17.36828125 26.29296875 -20.99828125 26.29296875 -24.73828125 26.29296875 C-24.73828125 22.66296875 -24.73828125 19.03296875 -24.73828125 15.29296875 C-21.10828125 15.29296875 -17.47828125 15.29296875 -13.73828125 15.29296875 C-13.80015625 14.24109375 -13.86203125 13.18921875 -13.92578125 12.10546875 C-13.72542243 8.03150616 -13.26443504 6.4288838 -10.73828125 3.29296875 C-7.03708575 0.62979127 -4.53434907 -0.07274357 0 0 Z " fill="#F593B6" transform="translate(315.73828125,55.70703125)"/>
<path d="M0 0 C5.61 0 11.22 0 17 0 C17 3.3 17 6.6 17 10 C20.96 10 24.92 10 29 10 C29 13.63 29 17.26 29 21 C25.04 21 21.08 21 17 21 C17 28.26 17 35.52 17 43 C11.39 43 5.78 43 0 43 C0 35.74 0 28.48 0 21 C-3.63 21 -7.26 21 -11 21 C-11 17.37 -11 13.74 -11 10 C-7.37 10 -3.74 10 0 10 C0 6.7 0 3.4 0 0 Z " fill="#F694B7" transform="translate(193,59)"/>
<path d="M0 0 C0 0.66 0 1.32 0 2 C0.99 2.33 1.98 2.66 3 3 C0.45703122 4.27148439 -0.19928456 3.78409244 -2.875 3 C-8.78050862 1.5692345 -16.44316065 1.22158033 -22 4 C-14.08 4.33 -6.16 4.66 2 5 C1.01 5.66 0.02 6.32 -1 7 C5.27 7.33 11.54 7.66 18 8 C17.505 4.04 17.505 4.04 17 0 C19 2 19 2 20 10 C5.15 10 -9.7 10 -25 10 C-25.33 10.66 -25.66 11.32 -26 12 C-26.66 10.35 -27.32 8.7 -28 7 C-27.34 7 -26.68 7 -26 7 C-25.34 5.02 -24.68 3.04 -24 1 C-15.98340366 -0.12513633 -8.07861415 -0.09579384 0 0 Z " fill="#E495B1" transform="translate(446,77)"/>
<path d="M0 0 C1.051875 0.495 2.10375 0.99 3.1875 1.5 C9.57358295 3.90189572 17.39200236 4.28361455 23.84375 1.98828125 C27.93794267 0.70631251 31.61799238 0.78120153 35.875 0.875 C37.050625 0.88853516 37.050625 0.88853516 38.25 0.90234375 C40.16680055 0.92571937 42.08344191 0.96158347 44 1 C43.67 2.32 43.34 3.64 43 5 C43 4.01 43 3.02 43 2 C40.62337178 2.0876873 38.25016873 2.19463114 35.875 2.3125 C34.87726563 2.34633789 34.87726563 2.34633789 33.859375 2.38085938 C30.45239364 2.56456915 28.0422554 2.97868098 24.98046875 4.5234375 C21.27113552 6.36108882 18.55708828 6.36654102 14.4375 6.3125 C12.51744141 6.30669922 12.51744141 6.30669922 10.55859375 6.30078125 C7.24993212 6.02112489 4.96747819 5.42962961 2 4 C1.67 4.66 1.34 5.32 1 6 C0.4465236 3.92446352 0 2.15634036 0 0 Z " fill="#E293B0" transform="translate(421,89)"/>
<path d="M0 0 C0.74900574 0.00141495 1.49801147 0.0028299 2.26971436 0.00428772 C4.65380912 0.00986966 7.03780878 0.0224188 9.421875 0.03515625 C11.04166531 0.04017359 12.66145709 0.04473609 14.28125 0.04882812 C18.24482812 0.05983317 22.20833545 0.07708534 26.171875 0.09765625 C26.666875 1.58265625 26.666875 1.58265625 27.171875 3.09765625 C14.301875 3.09765625 1.431875 3.09765625 -11.828125 3.09765625 C-11.828125 2.43765625 -11.828125 1.77765625 -11.828125 1.09765625 C-7.93852673 -0.17394318 -4.04248921 -0.02885562 0 0 Z " fill="#DE90AC" transform="translate(65.828125,70.90234375)"/>
<path d="M0 0 C5.61 0 11.22 0 17 0 C17 0.66 17 1.32 17 2 C11.555 2.495 11.555 2.495 6 3 C5.67 4.32 5.34 5.64 5 7 C3.68 7 2.36 7 1 7 C1.33 10.63 1.66 14.26 2 18 C0.68 17.67 -0.64 17.34 -2 17 C-1.67 16.67 -1.34 16.34 -1 16 C-0.76304852 13.30577395 -0.57831398 10.63665389 -0.4375 7.9375 C-0.293125 5.318125 -0.14875 2.69875 0 0 Z " fill="#EA98B6" transform="translate(162,69)"/>
<path d="M0 0 C3 1 3 1 4 3 C4.13860991 7.00305407 4.04262206 10.99352624 4 15 C-1.94 15 -7.88 15 -14 15 C-14 11.7 -14 8.4 -14 5 C-13.67 5 -13.34 5 -13 5 C-12.34 7.64 -11.68 10.28 -11 13 C-6.71 13.33 -2.42 13.66 2 14 C1.855625 12.246875 1.71125 10.49375 1.5625 8.6875 C1.48128906 7.70136719 1.40007812 6.71523437 1.31640625 5.69921875 C1.08187441 2.90624401 1.08187441 2.90624401 0 0 Z " fill="#E59EB8" transform="translate(105,87)"/>
<path d="M0 0 C1.84835389 1.56149465 2.8965321 2.46100677 3.36076355 4.87931824 C3.35410172 5.58325211 3.34743988 6.28718597 3.34057617 7.01245117 C3.34034958 7.81305466 3.34012299 8.61365814 3.33988953 9.43852234 C3.32440567 10.29798965 3.30892181 11.15745697 3.29296875 12.04296875 C3.28872391 12.9265657 3.28447906 13.81016266 3.28010559 14.72053528 C3.26331043 17.54316661 3.22565697 20.36508441 3.1875 23.1875 C3.17245423 25.10090115 3.15876564 27.01431349 3.14648438 28.92773438 C3.11340419 33.61876459 3.0616163 38.30926131 3 43 C2.34 43 1.68 43 1 43 C0.98018066 41.82904785 0.96036133 40.6580957 0.93994141 39.45166016 C0.86399919 35.11663926 0.7752648 30.78195905 0.68261719 26.44726562 C0.64428023 24.56940424 0.60943573 22.69146824 0.578125 20.81347656 C0.53257637 18.11756679 0.47456625 15.42217288 0.4140625 12.7265625 C0.40251129 11.88380768 0.39096008 11.04105286 0.37905884 10.17276001 C0.45806819 5.60979043 0.45806819 5.60979043 -2 2 C-1.34 1.34 -0.68 0.68 0 0 Z " fill="#DD9DB3" transform="translate(36,59)"/>
<path d="M0 0 C2.51570636 0.97382182 3.73944098 1.46151135 4.9375 3.9375 C5 6 5 6 3.8503418 7.62426758 C1.27463503 9.53931015 -0.36689672 9.2590695 -3.54296875 9.07421875 C-4.61611328 9.01943359 -5.68925781 8.96464844 -6.79492188 8.90820312 C-7.91447266 8.83537109 -9.03402344 8.76253906 -10.1875 8.6875 C-11.31865234 8.62626953 -12.44980469 8.56503906 -13.61523438 8.50195312 C-16.41125303 8.34858501 -19.20563763 8.18072046 -22 8 C-22 7.67 -22 7.34 -22 7 C-14.08 6.67 -6.16 6.34 2 6 C-0.97 5.34 -3.94 4.68 -7 4 C-7 3.67 -7 3.34 -7 3 C-5.5459375 2.814375 -5.5459375 2.814375 -4.0625 2.625 C-3.051875 2.41875 -2.04125 2.2125 -1 2 C-0.67 1.34 -0.34 0.68 0 0 Z " fill="#E391AE" transform="translate(379,75)"/>
<path d="M0 0 C2 2 2 2 3 10 C-4.92 10 -12.84 10 -21 10 C-21 9.67 -21 9.34 -21 9 C-16.14270355 8.02700844 -11.5499375 7.87961195 -6.625 7.9375 C-5.88894531 7.94201172 -5.15289062 7.94652344 -4.39453125 7.95117188 C-2.59631842 7.96284858 -0.79814803 7.98077989 1 8 C0.67 5.36 0.34 2.72 0 0 Z " fill="#E39AB4" transform="translate(463,77)"/>
<path d="M0 0 C6.93 0.495 6.93 0.495 14 1 C14.33 1.99 14.66 2.98 15 4 C12.54137599 4.05383848 10.0839245 4.09359038 7.625 4.125 C6.57699219 4.15013672 6.57699219 4.15013672 5.5078125 4.17578125 C3.67102514 4.19344267 1.83398037 4.10303261 0 4 C-0.66 3.34 -1.32 2.68 -2 2 C-1.34 2 -0.68 2 0 2 C0 1.34 0 0.68 0 0 Z " fill="#F696B9" transform="translate(422,82)"/>
<path d="M0 0 C2.2109885 0.42793326 3.98119242 0.99059621 6 2 C8.3329866 2.04022391 10.66706666 2.04320247 13 2 C13 2.66 13 3.32 13 4 C8.05 4.33 3.1 4.66 -2 5 C-1 1 -1 1 0 0 Z " fill="#EB96B4" transform="translate(250,77)"/>
<path d="M0 0 C0.97453125 0.00451172 1.9490625 0.00902344 2.953125 0.01367188 C5.34381434 0.02539094 7.7343744 0.04179781 10.125 0.0625 C10.125 0.3925 10.125 0.7225 10.125 1.0625 C9.56514404 1.08755615 9.00528809 1.1126123 8.4284668 1.13842773 C5.88958695 1.25453745 3.35106447 1.3771958 0.8125 1.5 C-0.06857422 1.53931641 -0.94964844 1.57863281 -1.85742188 1.61914062 C-2.70498047 1.66103516 -3.55253906 1.70292969 -4.42578125 1.74609375 C-5.20606689 1.78275146 -5.98635254 1.81940918 -6.7902832 1.85717773 C-9.06829101 2.00375263 -9.06829101 2.00375263 -11.875 3.0625 C-13.43618428 3.12990865 -15.0000252 3.14764456 -16.5625 3.125 C-17.77486328 3.11146484 -17.77486328 3.11146484 -19.01171875 3.09765625 C-19.93404297 3.08025391 -19.93404297 3.08025391 -20.875 3.0625 C-14.41002889 -0.66729103 -7.22291203 -0.06361643 0 0 Z " fill="#DD94AE" transform="translate(435.875,67.9375)"/>
<path d="M0 0 C0.33 0.99 0.66 1.98 1 3 C-0.53790413 6.07580826 -2.19946967 8.9534586 -5 11 C-7.6875 11.1875 -7.6875 11.1875 -10 11 C-10.33 9.68 -10.66 8.36 -11 7 C-7.94736336 6.01879536 -6.05263664 6.01879536 -3 7 C-2.690625 6.21625 -2.38125 5.4325 -2.0625 4.625 C-1 2 -1 2 0 0 Z " fill="#E590AF" transform="translate(109,76)"/>
<path d="M0 0 C0.33 0 0.66 0 1 0 C1 3.96 1 7.92 1 12 C-0.32 12 -1.64 12 -3 12 C-4 9 -4 9 -3.0625 6.8125 C-2.711875 6.214375 -2.36125 5.61625 -2 5 C-1.34 5 -0.68 5 0 5 C0 3.35 0 1.7 0 0 Z " fill="#F195B4" transform="translate(53,90)"/>
<path d="M0 0 C3 1 3 1 4 3 C4.07065617 5.04055005 4.08421976 7.08334257 4.0625 9.125 C4.05347656 10.22070312 4.04445313 11.31640625 4.03515625 12.4453125 C4.02355469 13.28835937 4.01195313 14.13140625 4 15 C3.34 14.67 2.68 14.34 2 14 C1.62109375 11.6015625 1.62109375 11.6015625 1.4375 8.625 C1.23313343 5.46357425 1.00622117 3.01866352 0 0 Z " fill="#DF93AE" transform="translate(105,87)"/>
<path d="M0 0 C0.33 0 0.66 0 1 0 C1 1.65 1 3.3 1 5 C0.01 5 -0.98 5 -2 5 C-2.33 7.97 -2.66 10.94 -3 14 C-3.33 14 -3.66 14 -4 14 C-4.31549088 8.7418187 -3.70016294 5.53627373 -1 1 C-0.67 0.67 -0.34 0.34 0 0 Z " fill="#E198B3" transform="translate(407,75)"/>
<path d="M0 0 C0.66 0 1.32 0 2 0 C2.6875 2.25 2.6875 2.25 3 5 C1.5625 7.3125 1.5625 7.3125 0 9 C-1.15941038 5.52176885 -0.70820884 3.54104422 0 0 Z " fill="#EC96B6" transform="translate(284,75)"/>
<path d="M0 0 C-0.66 1.32 -1.32 2.64 -2 4 C-2.99 4 -3.98 4 -5 4 C-5.33 4.99 -5.66 5.98 -6 7 C-6.99 6.67 -7.98 6.34 -9 6 C-7.8803014 4.99406757 -6.7540588 3.9954151 -5.625 3 C-4.68527344 2.1646875 -4.68527344 2.1646875 -3.7265625 1.3125 C-2 0 -2 0 0 0 Z " fill="#E791B1" transform="translate(251,72)"/>
<path d="M0 0 C1.5 1.0625 1.5 1.0625 3 3 C3.1875 6.6875 3.1875 6.6875 3 10 C1 7 1 7 0 4 C-0.66 3.34 -1.32 2.68 -2 2 C-1.34 1.34 -0.68 0.68 0 0 Z " fill="#A16479" transform="translate(36,59)"/>
<path d="M0 0 C2.5625 2.25 2.5625 2.25 5 5 C4.8125 7.3125 4.8125 7.3125 4 9 C4 8.01 4 7.02 4 6 C2.68 5.67 1.36 5.34 0 5 C0 3.35 0 1.7 0 0 Z " fill="#E996B3" transform="translate(105,63)"/>
</svg>
